<svg width="215" height="231" viewBox="0 0 215 231" fill="none" xmlns="http://www.w3.org/2000/svg">
<mask id="mask0_8240_2672" style="mask-type:luminance" maskUnits="userSpaceOnUse" x="0" y="0" width="215" height="231">
<path d="M214.712 193.357L41.6668 230.542L0.209681 37.6144L173.255 0.42978L214.712 193.357Z" fill="white"/>
</mask>
<g mask="url(#mask0_8240_2672)">
<mask id="mask1_8240_2672" style="mask-type:luminance" maskUnits="userSpaceOnUse" x="11" y="15" width="193" height="201">
<path d="M103.033 15.6637L203.656 142.49L111.851 215.327L11.2281 88.5011L103.033 15.6637Z" fill="white"/>
</mask>
<g mask="url(#mask1_8240_2672)">
<mask id="mask2_8240_2672" style="mask-type:luminance" maskUnits="userSpaceOnUse" x="0" y="0" width="215" height="231">
<path d="M41.6638 230.542L214.709 193.357L173.252 0.42978L0.206751 37.6144L41.6638 230.542Z" fill="white"/>
</mask>
<g mask="url(#mask2_8240_2672)">
<mask id="mask3_8240_2672" style="mask-type:luminance" maskUnits="userSpaceOnUse" x="41" y="32" width="152" height="191">
<path d="M192.276 198.047L77.1938 222.776L41.5564 56.9317L156.639 32.2023L192.276 198.047Z" fill="white"/>
</mask>
<g mask="url(#mask3_8240_2672)">
<mask id="mask4_8240_2672" style="mask-type:luminance" maskUnits="userSpaceOnUse" x="11" y="15" width="193" height="201">
<path d="M103.036 15.6637L203.659 142.49L111.854 215.327L11.231 88.5011L103.036 15.6637Z" fill="white"/>
</mask>
<g mask="url(#mask4_8240_2672)">
<mask id="mask5_8240_2672" style="mask-type:luminance" maskUnits="userSpaceOnUse" x="-13" y="15" width="244" height="253">
<path d="M114.191 267.913L-12.9319 107.685L103.063 15.6548L230.187 175.882L114.191 267.913Z" fill="white"/>
</mask>
<g mask="url(#mask5_8240_2672)">
<path d="M107.302 77.0123C114.023 82.7212 120.144 87.8261 126.148 93.0423C136.837 102.329 147.124 112.037 156.217 122.916C158.868 126.085 160.597 130.053 163.414 133.022C169.615 139.587 173.621 147.57 178.139 155.163C181.768 161.269 184.671 167.97 186.888 174.735C191.458 188.671 188.245 201.233 178.736 212.355C167.583 225.415 153.51 233.157 136.632 235.918C120.882 238.503 105.254 237.209 89.7109 234.187C88.7127 233.986 87.7508 233.551 86.8165 233.128C86.5618 233.023 86.4629 232.553 86.2968 232.257C89.5235 225.041 95.6958 221.343 103.448 221.405C114.976 221.502 126.525 221.582 138.04 221.124C146.258 220.802 154.331 219.069 162.119 216.177C166.475 214.569 168.964 211.773 170.092 207.283C171.645 201.001 171.445 194.793 170.033 188.569C168.079 179.936 164.267 172.09 159.703 164.568C152.191 152.23 142.71 141.489 132.725 131.147C117.641 115.522 101.275 101.325 84.151 88.0033C83.0818 87.1741 81.866 86.5471 79.71 85.2104C80.7066 87.8263 81.2492 89.416 81.8838 90.9494C85.0838 98.7148 88.4033 106.437 91.5046 114.229C94.3547 121.382 93.9193 122.515 87.6071 126.685C79.5693 132.001 78.3771 131.663 74.1515 123.101C68.3505 111.323 62.6683 99.502 56.634 87.8396C53.2617 81.3238 49.2908 75.1109 45.6139 68.7508C44.7617 67.2876 44.0305 65.7625 43.0997 63.9849C46.8075 61.1286 49.9316 58.1196 53.5942 56.069C59.3682 52.8403 65.313 50.948 72.335 53.4563C80.045 56.2057 88.1835 57.7256 96.1304 59.8244C105.337 62.2597 114.741 62.9802 124.195 62.8568C126.92 62.818 129.648 61.9199 132.355 61.3636C134.135 60.9956 135.879 60.5189 138.169 59.9525C137.618 63.9834 135.544 65.9206 133.112 67.6448C127.017 72.0014 120.293 74.7675 112.907 75.9209C111.268 76.2285 109.643 76.5761 107.302 77.0123ZM132.707 102.388C131.785 101.031 131.082 99.4326 129.896 98.3701C124.245 93.319 118.465 88.406 112.667 83.4718C110.504 81.8675 108.34 80.2625 106.178 78.6581C105.99 78.9607 105.802 79.2641 105.625 79.5583C108.024 80.8558 110.433 82.1457 112.832 83.4432C113.646 84.6634 114.25 86.1354 115.314 87.0883C121.094 92.2596 126.986 97.2906 132.873 102.359C135.145 104.51 137.417 106.662 139.689 108.814C139.957 108.463 140.238 108.104 140.507 107.753C137.907 105.964 135.307 104.177 132.707 102.388ZM151.511 119.529C151.294 119.667 151.068 119.813 150.86 119.96C151.356 120.542 151.854 121.105 152.35 121.687C152.497 121.571 152.633 121.463 152.78 121.346C152.362 120.754 151.927 120.14 151.511 119.529Z" fill="#9F9F9F"/>
</g>
</g>
</g>
</g>
</g>
</g>
</svg>
